<?xml version="1.0" encoding="UTF-8" standalone="no"?>
<!DOCTYPE svg PUBLIC "-//W3C//DTD SVG 1.1//EN"
 "http://www.w3.org/Graphics/SVG/1.1/DTD/svg11.dtd">
<!-- Generated by graphviz version 2.40.1 (20161225.0304)
 -->
<!-- Title: G Pages: 1 -->
<svg width="387pt" height="279pt"
 viewBox="0.00 0.00 386.89 278.80" xmlns="http://www.w3.org/2000/svg" xmlns:xlink="http://www.w3.org/1999/xlink">
<g id="graph0" class="graph" transform="scale(1 1) rotate(0) translate(4 274.8)">
<title>G</title>
<polygon fill="#ffffff" stroke="transparent" points="-4,4 -4,-274.8 382.8879,-274.8 382.8879,4 -4,4"/>
<!-- Fields -->
<g id="node1" class="node">
<title>Fields</title>
<ellipse fill="#d3d3d3" stroke="#000000" cx="34.6429" cy="-252.8" rx="34.7864" ry="18"/>
<text text-anchor="middle" x="34.6429" y="-248.6" font-family="Times,serif" font-size="14.00" fill="#000000">Fields</text>
</g>
<!-- Model -->
<g id="node2" class="node">
<title>Model</title>
<ellipse fill="#d3d3d3" stroke="#000000" cx="136.6429" cy="-179.8" rx="36.4975" ry="18"/>
<text text-anchor="middle" x="136.6429" y="-175.6" font-family="Times,serif" font-size="14.00" fill="#000000">Model</text>
</g>
<!-- Fields&#45;&gt;Model -->
<g id="edge1" class="edge">
<title>Fields&#45;&gt;Model</title>
<path fill="none" stroke="#000000" d="M55.2841,-238.0274C70.2547,-227.3131 90.7125,-212.6718 107.3682,-200.7515"/>
<polygon fill="#000000" stroke="#000000" points="109.5873,-203.4674 115.6823,-194.8012 105.5133,-197.775 109.5873,-203.4674"/>
</g>
<!-- Solver -->
<g id="node5" class="node">
<title>Solver</title>
<ellipse fill="#d3d3d3" stroke="#000000" cx="239.6429" cy="-106.8" rx="36.4955" ry="18"/>
<text text-anchor="middle" x="239.6429" y="-102.6" font-family="Times,serif" font-size="14.00" fill="#000000">Solver</text>
</g>
<!-- Model&#45;&gt;Solver -->
<g id="edge4" class="edge">
<title>Model&#45;&gt;Solver</title>
<path fill="none" stroke="#000000" d="M157.4865,-165.0274C172.7039,-154.2422 193.5361,-139.4777 210.4148,-127.515"/>
<polygon fill="#000000" stroke="#000000" points="212.6955,-130.1886 218.8303,-121.5507 208.6478,-124.4775 212.6955,-130.1886"/>
</g>
<!-- Equations -->
<g id="node3" class="node">
<title>Equations</title>
<ellipse fill="#d3d3d3" stroke="#000000" cx="136.6429" cy="-252.8" rx="49.8194" ry="18"/>
<text text-anchor="middle" x="136.6429" y="-248.6" font-family="Times,serif" font-size="14.00" fill="#000000">Equations</text>
</g>
<!-- Equations&#45;&gt;Model -->
<g id="edge2" class="edge">
<title>Equations&#45;&gt;Model</title>
<path fill="none" stroke="#000000" d="M136.6429,-234.7551C136.6429,-226.6828 136.6429,-216.9764 136.6429,-207.9817"/>
<polygon fill="#000000" stroke="#000000" points="140.143,-207.8903 136.6429,-197.8904 133.143,-207.8904 140.143,-207.8903"/>
</g>
<!-- Custom terms -->
<g id="node4" class="node">
<title>Custom terms</title>
<ellipse fill="#d3d3d3" stroke="#000000" cx="269.6429" cy="-252.8" rx="64.9044" ry="18"/>
<text text-anchor="middle" x="269.6429" y="-248.6" font-family="Times,serif" font-size="14.00" fill="#000000">Custom terms</text>
</g>
<!-- Custom terms&#45;&gt;Model -->
<g id="edge3" class="edge">
<title>Custom terms&#45;&gt;Model</title>
<path fill="none" stroke="#000000" d="M240.1259,-236.5989C219.3674,-225.2052 191.5592,-209.942 169.9972,-198.1073"/>
<polygon fill="#000000" stroke="#000000" points="171.628,-195.0098 161.1776,-193.2664 168.2599,-201.1463 171.628,-195.0098"/>
</g>
<!-- Analysis -->
<g id="node8" class="node">
<title>Analysis</title>
<ellipse fill="#d3d3d3" stroke="#000000" cx="239.6429" cy="-18" rx="44.6607" ry="18"/>
<text text-anchor="middle" x="239.6429" y="-13.8" font-family="Times,serif" font-size="14.00" fill="#000000">Analysis</text>
</g>
<!-- Solver&#45;&gt;Analysis -->
<g id="edge7" class="edge">
<title>Solver&#45;&gt;Analysis</title>
<path fill="none" stroke="#000000" d="M239.6429,-88.4006C239.6429,-76.2949 239.6429,-60.2076 239.6429,-46.4674"/>
<polygon fill="#000000" stroke="#000000" points="243.143,-46.072 239.6429,-36.072 236.143,-46.0721 243.143,-46.072"/>
<text text-anchor="middle" x="257.3368" y="-58.2" font-family="Times,serif" font-size="14.00" fill="#000000"> Solve</text>
</g>
<!-- Callbacks -->
<g id="node6" class="node">
<title>Callbacks</title>
<ellipse fill="#d3d3d3" stroke="#000000" cx="239.6429" cy="-179.8" rx="49.2338" ry="18"/>
<text text-anchor="middle" x="239.6429" y="-175.6" font-family="Times,serif" font-size="14.00" fill="#000000">Callbacks</text>
</g>
<!-- Callbacks&#45;&gt;Solver -->
<g id="edge5" class="edge">
<title>Callbacks&#45;&gt;Solver</title>
<path fill="none" stroke="#000000" d="M239.6429,-161.7551C239.6429,-153.6828 239.6429,-143.9764 239.6429,-134.9817"/>
<polygon fill="#000000" stroke="#000000" points="243.143,-134.8903 239.6429,-124.8904 236.143,-134.8904 243.143,-134.8903"/>
</g>
<!-- FileIO -->
<g id="node7" class="node">
<title>FileIO</title>
<ellipse fill="#d3d3d3" stroke="#000000" cx="342.6429" cy="-179.8" rx="36.4917" ry="18"/>
<text text-anchor="middle" x="342.6429" y="-175.6" font-family="Times,serif" font-size="14.00" fill="#000000">FileIO</text>
</g>
<!-- FileIO&#45;&gt;Solver -->
<g id="edge6" class="edge">
<title>FileIO&#45;&gt;Solver</title>
<path fill="none" stroke="#000000" d="M321.7993,-165.0274C306.5819,-154.2422 285.7497,-139.4777 268.871,-127.515"/>
<polygon fill="#000000" stroke="#000000" points="270.638,-124.4775 260.4555,-121.5507 266.5904,-130.1886 270.638,-124.4775"/>
</g>
</g>
</svg>
