<?xml version="1.0" encoding="UTF-8" standalone="no"?>
<svg
   xmlns:dc="http://purl.org/dc/elements/1.1/"
   xmlns:cc="http://creativecommons.org/ns#"
   xmlns:rdf="http://www.w3.org/1999/02/22-rdf-syntax-ns#"
   xmlns:svg="http://www.w3.org/2000/svg"
   xmlns="http://www.w3.org/2000/svg"
   xmlns:sodipodi="http://sodipodi.sourceforge.net/DTD/sodipodi-0.dtd"
   xmlns:inkscape="http://www.inkscape.org/namespaces/inkscape"
   sodipodi:docname="gopher.svg"
   inkscape:version="1.0beta2 (unknown)"
   id="svg8"
   version="1.1"
   viewBox="0 0 28.398254 21.655361"
   height="21.655361mm"
   width="28.398254mm">
  <defs
     id="defs2">
    <inkscape:path-effect
       only_selected="false"
       apply_with_weight="true"
       apply_no_weight="true"
       helper_size="0"
       steps="2"
       weight="33.333333"
       lpeversion="1"
       is_visible="true"
       id="path-effect1001"
       effect="bspline" />
    <inkscape:path-effect
       only_selected="false"
       apply_with_weight="true"
       apply_no_weight="true"
       helper_size="0"
       steps="2"
       weight="33.333333"
       lpeversion="1"
       is_visible="true"
       id="path-effect997"
       effect="bspline" />
    <inkscape:path-effect
       only_selected="false"
       apply_with_weight="true"
       apply_no_weight="true"
       helper_size="0"
       steps="2"
       weight="33.333333"
       lpeversion="1"
       is_visible="true"
       id="path-effect993"
       effect="bspline" />
    <inkscape:path-effect
       only_selected="false"
       apply_with_weight="true"
       apply_no_weight="true"
       helper_size="0"
       steps="2"
       weight="33.333333"
       lpeversion="1"
       is_visible="true"
       id="path-effect947"
       effect="bspline" />
    <inkscape:path-effect
       only_selected="false"
       apply_with_weight="true"
       apply_no_weight="true"
       helper_size="0"
       steps="2"
       weight="33.333333"
       lpeversion="1"
       is_visible="true"
       id="path-effect943"
       effect="bspline" />
    <inkscape:path-effect
       only_selected="false"
       apply_with_weight="true"
       apply_no_weight="true"
       helper_size="0"
       steps="2"
       weight="33.333333"
       lpeversion="1"
       is_visible="true"
       id="path-effect939"
       effect="bspline" />
    <inkscape:path-effect
       only_selected="false"
       apply_with_weight="true"
       apply_no_weight="true"
       helper_size="0"
       steps="2"
       weight="33.333333"
       lpeversion="1"
       is_visible="true"
       id="path-effect935"
       effect="bspline" />
    <inkscape:path-effect
       only_selected="false"
       apply_with_weight="true"
       apply_no_weight="true"
       helper_size="0"
       steps="2"
       weight="33.333333"
       lpeversion="1"
       is_visible="true"
       id="path-effect931"
       effect="bspline" />
    <inkscape:path-effect
       only_selected="false"
       apply_with_weight="true"
       apply_no_weight="true"
       helper_size="0"
       steps="2"
       weight="33.333333"
       lpeversion="1"
       is_visible="true"
       id="path-effect927"
       effect="bspline" />
    <inkscape:path-effect
       only_selected="false"
       apply_with_weight="true"
       apply_no_weight="true"
       helper_size="0"
       steps="2"
       weight="33.333333"
       lpeversion="1"
       is_visible="true"
       id="path-effect923"
       effect="bspline" />
    <inkscape:path-effect
       only_selected="false"
       apply_with_weight="true"
       apply_no_weight="true"
       helper_size="0"
       steps="2"
       weight="33.333333"
       lpeversion="1"
       is_visible="true"
       id="path-effect919"
       effect="bspline" />
    <inkscape:path-effect
       only_selected="false"
       apply_with_weight="true"
       apply_no_weight="true"
       helper_size="0"
       steps="2"
       weight="33.333333"
       lpeversion="1"
       is_visible="true"
       id="path-effect915"
       effect="bspline" />
    <inkscape:path-effect
       only_selected="false"
       apply_with_weight="true"
       apply_no_weight="true"
       helper_size="0"
       steps="2"
       weight="33.333333"
       lpeversion="1"
       is_visible="true"
       id="path-effect911"
       effect="bspline" />
    <inkscape:path-effect
       only_selected="false"
       apply_with_weight="true"
       apply_no_weight="true"
       helper_size="0"
       steps="2"
       weight="33.333333"
       lpeversion="1"
       is_visible="true"
       id="path-effect907"
       effect="bspline" />
    <inkscape:path-effect
       only_selected="false"
       apply_with_weight="true"
       apply_no_weight="true"
       helper_size="0"
       steps="2"
       weight="33.333333"
       lpeversion="1"
       is_visible="true"
       id="path-effect903"
       effect="bspline" />
    <inkscape:path-effect
       only_selected="false"
       apply_with_weight="true"
       apply_no_weight="true"
       helper_size="0"
       steps="2"
       weight="33.333333"
       lpeversion="1"
       is_visible="true"
       id="path-effect899"
       effect="bspline" />
    <inkscape:path-effect
       only_selected="false"
       apply_with_weight="true"
       apply_no_weight="true"
       helper_size="0"
       steps="2"
       weight="33.333333"
       lpeversion="1"
       is_visible="true"
       id="path-effect895"
       effect="bspline" />
    <inkscape:path-effect
       only_selected="false"
       apply_with_weight="true"
       apply_no_weight="true"
       helper_size="0"
       steps="2"
       weight="33.333333"
       lpeversion="1"
       is_visible="true"
       id="path-effect891"
       effect="bspline" />
    <inkscape:path-effect
       only_selected="false"
       apply_with_weight="true"
       apply_no_weight="true"
       helper_size="0"
       steps="2"
       weight="33.333333"
       lpeversion="1"
       is_visible="true"
       id="path-effect887"
       effect="bspline" />
    <inkscape:path-effect
       only_selected="false"
       apply_with_weight="true"
       apply_no_weight="true"
       helper_size="0"
       steps="2"
       weight="33.333333"
       lpeversion="1"
       is_visible="true"
       id="path-effect883"
       effect="bspline" />
  </defs>
  <sodipodi:namedview
     inkscape:window-maximized="1"
     inkscape:window-y="0"
     inkscape:window-x="0"
     inkscape:window-height="836"
     inkscape:window-width="1600"
     showgrid="false"
     inkscape:document-rotation="0"
     inkscape:current-layer="layer1"
     inkscape:document-units="mm"
     inkscape:cy="39.951339"
     inkscape:cx="65.420267"
     inkscape:zoom="2"
     inkscape:pageshadow="2"
     inkscape:pageopacity="0.0"
     borderopacity="1.0"
     bordercolor="#666666"
     pagecolor="#ffffff"
     id="base" />
  <metadata
     id="metadata5">
    <rdf:RDF>
      <cc:Work
         rdf:about="">
        <dc:format>image/svg+xml</dc:format>
        <dc:type
           rdf:resource="http://purl.org/dc/dcmitype/StillImage" />
        <dc:title></dc:title>
      </cc:Work>
    </rdf:RDF>
  </metadata>
  <g
     transform="translate(-78.918618,-137.63644)"
     id="layer1"
     inkscape:groupmode="layer"
     inkscape:label="Layer 1">
    <path
       inkscape:connector-curvature="0"
       id="path955"
       d="m 90.750768,149.12328 c -0.363514,-0.2259 -0.498334,-0.47781 -0.498334,-0.93111 0,-0.43466 0.195198,-0.86596 0.51205,-1.13141 l 0.209128,-0.17521 0.269862,0.21547 c 0.387107,0.30909 0.703545,0.38904 1.541764,0.38959 0.785534,3.4e-4 1.182677,-0.11067 1.577811,-0.44172 0.220133,-0.18443 0.228144,-0.18495 0.471228,-0.0309 0.370034,0.23446 0.977644,1.02626 0.977644,1.27401 0,0.38702 -0.499939,0.92046 -0.862642,0.92046 -0.07612,0 -0.453524,-0.15491 -0.838678,-0.34426 -0.467526,-0.22985 -0.810502,-0.34427 -1.03188,-0.34427 -0.378568,0 -1.356557,0.34328 -1.712498,0.60111 -0.287555,0.2083 -0.277412,0.20832 -0.615455,-0.001 z"
       style="fill:#ff9955;fill-opacity:0.6;stroke-width:0.149947;stroke-miterlimit:4;stroke-dasharray:none" />
    <path
       sodipodi:nodetypes="cccscsccccc"
       inkscape:connector-curvature="0"
       id="path953"
       d="m 105.48196,158.54922 -0.60944,-0.26533 -0.006,-0.48656 c -0.0552,-0.47013 -0.0667,-1.19001 -0.019,-1.19001 0.11467,0 1.17326,0.37075 1.4092,0.49352 0.2849,0.14828 0.70545,0.5859 0.70545,0.73409 0,0.0421 -0.0868,0.0544 -0.19297,0.0271 -0.4616,-0.11854 -0.70698,0.2722 -0.39349,0.6266 0.16502,0.18659 0.0877,0.39582 -0.14625,0.39538 -0.0997,-1.9e-4 -0.43616,-0.15083 -0.74761,-0.33476 z"
       style="fill:#ff9955;fill-opacity:0.6;stroke-width:0.151931;stroke-miterlimit:4;stroke-dasharray:none" />
    <path
       inkscape:connector-curvature="0"
       id="path951"
       d="m 79.76709,158.96489 c -0.02352,-0.0396 0.01145,-0.11891 0.07775,-0.17618 0.400101,-0.34558 0.26464,-0.72702 -0.258184,-0.72702 -0.182946,0 -0.33263,-0.0239 -0.33263,-0.0533 0,-0.0293 0.08837,-0.17386 0.196387,-0.32124 0.277214,-0.37824 1.196241,-0.83188 1.818852,-0.8978 l 0.492449,-0.0521 -0.05305,0.84509 c -0.02919,0.46481 -0.07507,0.86914 -0.101981,0.89853 -0.08755,0.0956 -1.422782,0.55611 -1.61239,0.55611 -0.101423,0 -0.203659,-0.0324 -0.227194,-0.0721 z"
       style="fill:#ff9955;fill-opacity:0.6;stroke-width:0.15055;stroke-miterlimit:4;stroke-dasharray:none" />
    <path
       sodipodi:nodetypes="cccccccccccccccc"
       inkscape:original-d="m 81.781604,158.48482 c 0.03915,-0.69888 0.07804,-1.39802 0.116668,-2.09743 -0.14329,-1.53431 -0.28684,-3.06881 -0.430657,-4.60362 7.94e-4,-1.74276 0.0013,-3.48572 0.0016,-5.22898 0.287464,-1.02272 0.574651,-2.04567 0.861581,-3.0689 0.505928,-0.91771 1.011573,-1.83565 1.516962,-2.75387 0.334531,-0.34775 0.668787,-0.69575 1.002784,-1.04402 1.083892,-0.39577 2.167477,-0.7918 3.250821,-1.1881 1.091724,-0.1854 2.183138,-0.37106 3.274312,-0.55698 1.051356,-0.0457 2.102403,-0.0916 3.153206,-0.13781 1.351082,0.17644 2.701846,0.35262 4.052372,0.52853 0.96957,0.66489 1.938837,1.32948 2.907857,1.99382 0.74058,1.191 1.48086,2.38168 2.2209,3.57212 0.20167,1.47393 0.40308,2.94754 0.60422,4.42091 0.12695,1.75313 0.25362,3.55516 0.38003,5.33234 0.0134,1.69196 0.0264,3.38359 0.0393,5.07499"
       inkscape:path-effect="#path-effect883"
       inkscape:connector-curvature="0"
       id="path881"
       d="m 81.781604,158.48482 c 0.03888,-0.6989 0.07776,-1.39804 0.02545,-2.51488 -0.05231,-1.11684 -0.195861,-2.65134 -0.267385,-4.29013 -0.07152,-1.6388 -0.07099,-3.38176 0.07285,-4.76479 0.143841,-1.38304 0.43103,-2.40599 0.827458,-3.3765 0.396429,-0.97051 0.902073,-1.88845 1.322056,-2.52148 0.419984,-0.63303 0.754239,-0.98103 1.463259,-1.35308 0.70902,-0.37205 1.792606,-0.76808 2.880173,-1.05892 1.087567,-0.29084 2.178982,-0.4765 3.250266,-0.59228 1.071285,-0.11579 2.122331,-0.16172 3.323294,-0.0966 1.200963,0.0652 2.551728,0.24132 3.711781,0.66181 1.160054,0.42048 2.12932,1.08507 2.98406,2.01279 0.85475,0.92772 1.59503,2.1184 2.06581,3.45058 0.47078,1.33218 0.67218,2.80579 0.83534,4.4191 0.16316,1.6133 0.29158,3.41521 0.36146,5.14977 0.0699,1.73456 0.083,3.42619 0.0961,5.11759"
       style="fill:none;stroke:#000000;stroke-width:0.5;stroke-linecap:butt;stroke-linejoin:miter;stroke-miterlimit:4;stroke-dasharray:none;stroke-opacity:1" />
    <path
       inkscape:original-d="m 81.785128,156.59939 c -0.155252,-0.003 -0.328559,-0.006 -0.493236,-0.009 -0.343225,0.0615 -0.686702,0.12271 -1.030449,0.18368 -0.288044,0.20068 -0.576339,0.40108 -0.864907,0.60122 -0.08706,0.1542 -0.174392,0.30812 -0.261985,0.46179 0.01617,0.1138 0.03207,0.22734 0.0477,0.34061 0.112522,0.0458 0.224774,0.0914 0.336762,0.1367 0.121525,-0.0423 0.248264,-0.0948 0.371999,-0.14264 0.0047,0.0365 0.0091,0.0727 0.01326,0.10858 -0.136615,0.0796 -0.273486,0.15891 -0.410628,0.23797 0.02106,0.102 0.04185,0.20372 0.06238,0.30518 0.137316,0.10515 0.274362,0.21003 0.411149,0.31464 0.299556,-0.0888 0.598837,-0.17791 0.897858,-0.26727 0.305798,-0.12826 0.61132,-0.25678 0.916586,-0.38557"
       inkscape:path-effect="#path-effect887"
       inkscape:connector-curvature="0"
       id="path885"
       d="m 81.785128,156.59939 c -0.155255,-0.003 -0.328559,-0.006 -0.582538,0.0231 -0.253978,0.0291 -0.597452,0.0903 -0.913428,0.22114 -0.315975,0.13081 -0.60427,0.33122 -0.792137,0.50845 -0.187868,0.17723 -0.275193,0.33115 -0.310863,0.46499 -0.03567,0.13384 -0.01977,0.24738 0.04444,0.32685 0.06421,0.0795 0.176475,0.12503 0.292486,0.12473 0.11601,-3.1e-4 0.244054,-0.0494 0.308218,-0.0549 0.06416,-0.005 0.06858,0.0307 0.0024,0.0883 -0.06621,0.0576 -0.203077,0.13689 -0.261129,0.22759 -0.05805,0.0907 -0.03726,0.19243 0.04178,0.29569 0.07904,0.10327 0.216086,0.20815 0.434191,0.2159 0.218104,0.008 0.517391,-0.0813 0.81978,-0.19014 0.30239,-0.10881 0.607912,-0.23733 0.913313,-0.3658"
       style="fill:none;stroke:#000000;stroke-width:0.5;stroke-linecap:butt;stroke-linejoin:miter;stroke-miterlimit:4;stroke-dasharray:none;stroke-opacity:1" />
    <path
       sodipodi:nodetypes="cccccccccccccccc"
       inkscape:original-d="m 104.84596,158.28434 c 0.16975,0.10165 0.33923,0.20305 0.50844,0.30417 0.20267,0.12694 0.40507,0.2536 0.6072,0.38 0.14705,-0.0266 0.29384,-0.0534 0.44036,-0.0806 0.081,-0.0495 0.17473,-0.11214 0.2617,-0.1686 0.004,-0.14609 0.008,-0.29244 0.0109,-0.43906 -0.11788,-0.0986 -0.23603,-0.19752 -0.35444,-0.29668 0.0618,0.0101 0.12324,0.0199 0.18446,0.0295 0.0949,0.0704 0.1895,0.14053 0.28385,0.2104 0.0523,-0.0139 0.1142,-0.0282 0.17091,-0.0426 0.0616,-0.0959 0.12299,-0.19204 0.18409,-0.28846 -0.0968,-0.20294 -0.19377,-0.40614 -0.29105,-0.6096 -0.12373,-0.10174 -0.24772,-0.20374 -0.37198,-0.306 -0.22893,-0.1022 -0.45811,-0.20466 -0.68757,-0.30738 -0.24053,-0.0605 -0.48131,-0.1213 -0.72236,-0.18234 -0.10125,-0.0114 -0.20275,-0.023 -0.30452,-0.0349"
       inkscape:path-effect="#path-effect891"
       inkscape:connector-curvature="0"
       id="path889"
       d="m 104.84596,158.28434 c 0.16979,0.10158 0.33928,0.20297 0.52522,0.317 0.18594,0.11404 0.38833,0.2407 0.56287,0.29048 0.17454,0.0498 0.32132,0.0229 0.43451,-0.0162 0.11318,-0.0391 0.20793,-0.10016 0.25333,-0.20129 0.0454,-0.10113 0.049,-0.24749 -0.008,-0.37011 -0.0571,-0.12262 -0.17527,-0.22153 -0.20357,-0.26615 -0.0283,-0.0446 0.0331,-0.0348 0.1112,0.005 0.0781,0.0401 0.17266,0.1102 0.24607,0.13861 0.0734,0.0284 0.13505,0.013 0.19409,-0.0421 0.0591,-0.0551 0.12041,-0.15128 0.10268,-0.30084 -0.0177,-0.14956 -0.11474,-0.35275 -0.22518,-0.50539 -0.11044,-0.15264 -0.23443,-0.25463 -0.41101,-0.35691 -0.17658,-0.10228 -0.40576,-0.20474 -0.64075,-0.28639 -0.235,-0.0816 -0.47578,-0.14243 -0.64695,-0.17866 -0.17116,-0.0362 -0.27265,-0.0479 -0.37445,-0.0595"
       style="fill:none;stroke:#000000;stroke-width:0.5;stroke-linecap:butt;stroke-linejoin:miter;stroke-miterlimit:4;stroke-dasharray:none;stroke-opacity:1" />
    <path
       inkscape:original-d="m 91.235664,149.29986 c -0.01455,0.21696 -0.02939,0.43366 -0.04448,0.6501 0.04505,0.24398 0.08984,0.48769 0.134358,0.73113 0.232259,0.22654 0.464246,0.45281 0.69597,0.67881 0.138227,-0.0577 0.27618,-0.11558 0.413875,-0.17376 0.127828,-0.20411 0.255386,-0.40847 0.382683,-0.61311 -0.01865,-0.34923 -0.03757,-0.69872 -0.05675,-1.04847 0.02389,-0.23115 0.04751,-0.46255 0.07087,-0.69422 0.03653,0.0665 0.07279,0.15228 0.108796,0.22802 -0.03809,0.23032 -0.07645,0.46037 -0.115072,0.69016 0.01175,0.31057 0.0232,0.62087 0.03442,0.93091 0.08787,0.1234 0.175475,0.24653 0.262814,0.3694 0.195315,0.0779 0.390358,0.15547 0.585142,0.23282 0.179353,-0.0255 0.358431,-0.0512 0.537249,-0.0772 0.06982,-0.11309 0.139362,-0.22643 0.208645,-0.34005 -0.02336,-0.31328 -0.04698,-0.6268 -0.07087,-0.9406 0.01164,-0.23269 0.02302,-0.46562 0.03414,-0.69883 0.141575,0.002 0.291742,0.003 0.437218,0.005 0.185965,-0.0373 0.371658,-0.0749 0.557091,-0.11277 0.159295,-0.19602 0.31832,-0.39229 0.477083,-0.58883 0.0159,-0.17329 0.03152,-0.34683 0.04688,-0.52064 -0.106074,-0.13542 -0.21241,-0.2711 -0.31901,-0.40705 -0.15892,-0.15006 -0.318098,-0.30038 -0.477544,-0.45097 -0.167042,-0.10112 -0.334341,-0.2025 -0.50191,-0.30415 -0.04465,-0.0387 -0.09989,-0.0776 -0.15023,-0.11683 -0.08946,0.0916 -0.179186,0.18286 -0.269179,0.27389 -0.160642,0.0882 -0.321543,0.17621 -0.482714,0.26392 -0.17916,0.0392 -0.358576,0.0781 -0.538263,0.11683 -0.37243,-0.0173 -0.745106,-0.0348 -1.118058,-0.0525 -0.07414,-0.0437 -0.14855,-0.0876 -0.223223,-0.13187 -0.136988,-0.058 -0.274236,-0.11619 -0.41175,-0.17469 -0.0141,-0.0791 -0.04071,-0.17069 -0.06146,-0.25644 -0.116472,0.0237 -0.243845,0.0577 -0.366164,0.0861 -0.167381,0.15459 -0.335018,0.30891 -0.502923,0.46296 -0.08267,0.13072 -0.165592,0.26117 -0.248785,0.39136 -0.02188,0.21728 -0.04403,0.43429 -0.06644,0.65103 0.08003,0.20196 0.159784,0.40365 0.239281,0.60508 0.266372,0.11217 0.532469,0.22407 0.798309,0.33571 z"
       inkscape:path-effect="#path-effect895"
       inkscape:connector-curvature="0"
       id="path893"
       d="m 91.228242,149.40833 c -0.0074,0.10847 -0.02225,0.32517 -0.0072,0.55541 0.01502,0.23024 0.0598,0.47395 0.198299,0.70892 0.138496,0.23497 0.370484,0.46123 0.555398,0.54525 0.184913,0.084 0.322853,0.0261 0.455526,-0.10499 0.132673,-0.13108 0.260229,-0.33544 0.314582,-0.61228 0.05435,-0.27683 0.03544,-0.62632 0.03777,-0.91679 0.0023,-0.29047 0.02596,-0.52187 0.05409,-0.60351 0.02813,-0.0816 0.0682,0.002 0.06706,0.15531 -0.0011,0.15298 -0.0395,0.38303 -0.05292,0.65324 -0.01342,0.27021 -0.0019,0.58051 0.04769,0.79724 0.04964,0.21674 0.137245,0.33987 0.27863,0.44015 0.141385,0.10029 0.336416,0.17789 0.523439,0.20375 0.187024,0.0258 0.366097,1.2e-4 0.490281,-0.0694 0.124184,-0.0695 0.193726,-0.18283 0.216723,-0.39618 0.023,-0.21334 -6.26e-4,-0.52686 -0.0068,-0.80012 -0.0061,-0.27326 0.0052,-0.50619 0.08173,-0.62198 0.07649,-0.11579 0.226645,-0.11407 0.392334,-0.13206 0.165689,-0.018 0.351384,-0.0556 0.523637,-0.17247 0.172253,-0.1169 0.331276,-0.31317 0.418605,-0.49799 0.08733,-0.18481 0.102955,-0.35835 0.05773,-0.51293 -0.04523,-0.15459 -0.151566,-0.29027 -0.284305,-0.4333 -0.132739,-0.14302 -0.291917,-0.29334 -0.455142,-0.41923 -0.163224,-0.12589 -0.330523,-0.22727 -0.43762,-0.29616 -0.107096,-0.0689 -0.160369,-0.11033 -0.230433,-0.0843 -0.07006,0.0261 -0.159771,0.11735 -0.285032,0.20695 -0.125261,0.0896 -0.286178,0.17759 -0.45629,0.24105 -0.170112,0.0635 -0.349519,0.1024 -0.625545,0.11315 -0.276026,0.0108 -0.648702,-0.007 -0.872231,-0.0374 -0.223529,-0.0306 -0.297913,-0.0746 -0.403757,-0.12571 -0.105843,-0.0511 -0.243077,-0.10935 -0.321209,-0.17754 -0.07813,-0.0682 -0.100337,-0.16082 -0.168443,-0.19013 -0.06811,-0.0293 -0.196382,8.7e-4 -0.341318,0.0924 -0.144937,0.0915 -0.312576,0.24584 -0.437888,0.38827 -0.125312,0.14243 -0.208237,0.27287 -0.260765,0.44669 -0.05253,0.17382 -0.07467,0.39083 -0.04579,0.60022 0.02888,0.2094 0.108641,0.41108 0.281672,0.56779 0.173031,0.15671 0.439128,0.26861 0.57202,0.3245 0.132893,0.0559 0.132894,0.0556 0.125472,0.1641 z"
       style="fill:none;stroke:#000000;stroke-width:0.5;stroke-linecap:butt;stroke-linejoin:miter;stroke-miterlimit:4;stroke-dasharray:none;stroke-opacity:1" />
    <path
       inkscape:original-d="m 94.546832,149.19327 c -0.357167,-0.15888 -0.714595,-0.31804 -1.072288,-0.47745 -0.131667,-0.0389 -0.272142,-0.078 -0.408612,-0.11738 -0.403558,0.12768 -0.807365,0.25508 -1.211445,0.38222 -0.208486,0.14283 -0.417232,0.28538 -0.626245,0.42767"
       inkscape:path-effect="#path-effect899"
       inkscape:connector-curvature="0"
       id="path897"
       d="m 94.546832,149.19327 c -0.35711,-0.15901 -0.714542,-0.31816 -0.959391,-0.41676 -0.24485,-0.0986 -0.384992,-0.13885 -0.65508,-0.0948 -0.270089,0.0441 -0.673895,0.17147 -0.980233,0.30646 -0.306338,0.13499 -0.515081,0.27754 -0.723886,0.42014"
       style="fill:none;stroke:#000000;stroke-width:0.5;stroke-linecap:butt;stroke-linejoin:miter;stroke-miterlimit:4;stroke-dasharray:none;stroke-opacity:1" />
    <path
       inkscape:original-d="m 91.386818,146.77168 c 0.0727,-0.23794 0.145142,-0.47614 0.217318,-0.71461 0.09913,-0.11992 0.197987,-0.2401 0.296584,-0.36054 0.270833,-0.0491 0.541391,-0.0985 0.811689,-0.1482 0.274249,0.008 0.548219,0.0158 0.821934,0.0233 0.210571,0.12435 0.420872,0.24843 0.630912,0.37225 0.125428,0.28182 0.250589,0.58101 0.375486,0.87112"
       inkscape:path-effect="#path-effect903"
       inkscape:connector-curvature="0"
       id="path901"
       d="m 91.386818,146.77168 c 0.07239,-0.23803 0.144827,-0.47624 0.230493,-0.6555 0.08567,-0.17927 0.184527,-0.29944 0.369354,-0.38427 0.184826,-0.0848 0.455384,-0.13422 0.727692,-0.15501 0.272307,-0.0208 0.546278,-0.013 0.788442,0.053 0.242163,0.066 0.452463,0.19009 0.618507,0.39367 0.166044,0.20358 0.29441,0.50139 0.419435,0.79144"
       style="fill:none;stroke:#000000;stroke-width:0.5;stroke-linecap:butt;stroke-linejoin:miter;stroke-miterlimit:4;stroke-dasharray:none;stroke-opacity:1" />
    <path
       inkscape:original-d="m 96.351076,139.94568 c -0.552673,0.26671 -1.105612,0.53315 -1.658814,0.79933 -0.199032,0.18172 -0.398319,0.36316 -0.597876,0.54435 -0.125915,0.21984 -0.25209,0.44862 -0.378531,0.67253 -0.09048,0.30793 -0.181219,0.62617 -0.272225,0.93885 0.04007,0.41895 0.07987,0.84629 0.119409,1.26903 0.201777,0.345 0.413862,0.68971 0.620395,1.03418 0.228076,0.20531 0.45588,0.41035 0.683422,0.61513 0.247793,0.0955 0.495313,0.19073 0.742571,0.28569 0.468747,0.12399 0.937207,0.2477 1.405414,0.37115 0.510548,-0.0993 1.020813,-0.19881 1.530824,-0.29861 0.437152,-0.27797 0.874024,-0.55618 1.310642,-0.83467 0.194483,-0.33727 0.388703,-0.67479 0.582653,-1.01258 0.0629,-0.37369 0.12552,-0.74763 0.18788,-1.12184 -0.10192,-0.48052 -0.2041,-0.96129 -0.30655,-1.44233 -0.18365,-0.34628 -0.367563,-0.69281 -0.55174,-1.03962 -0.390025,-0.23354 -0.780296,-0.46734 -1.170842,-0.70141 -0.311338,-0.0762 -0.622927,-0.15267 -0.934789,-0.22941 -0.437025,0.0503 -0.874297,0.10042 -1.311843,0.15023 z"
       inkscape:path-effect="#path-effect907"
       inkscape:connector-curvature="0"
       id="path905"
       d="m 96.293419,140.05382 c -0.49517,0.15825 -1.048108,0.42469 -1.424274,0.64866 -0.376167,0.22397 -0.575452,0.40542 -0.737235,0.60653 -0.161784,0.20112 -0.289928,0.42879 -0.397681,0.69496 -0.107753,0.26617 -0.199909,0.584 -0.225541,0.94989 -0.02563,0.36589 0.01457,0.79319 0.137258,1.17591 0.122683,0.38271 0.330873,0.72976 0.548225,1.00462 0.217351,0.27486 0.445155,0.4799 0.682844,0.62997 0.23769,0.15008 0.48521,0.2453 0.843209,0.35476 0.358,0.10945 0.826459,0.23317 1.315785,0.24519 0.489326,0.012 0.999586,-0.0875 1.4731,-0.27639 0.473515,-0.18888 0.910383,-0.4671 1.225877,-0.77491 0.315494,-0.30782 0.509714,-0.64534 0.638134,-1.00102 0.12843,-0.35567 0.19106,-0.72961 0.17133,-1.15693 -0.0197,-0.42732 -0.12191,-0.90809 -0.26491,-1.32174 -0.143,-0.41366 -0.326907,-0.76019 -0.613937,-1.05043 -0.287029,-0.29024 -0.677302,-0.52404 -1.028243,-0.67923 -0.350942,-0.15519 -0.662532,-0.23166 -1.037013,-0.24491 -0.374482,-0.0132 -0.811759,0.0368 -1.306928,0.19507 z"
       style="fill:none;stroke:#000000;stroke-width:0.5;stroke-linecap:butt;stroke-linejoin:miter;stroke-miterlimit:4;stroke-dasharray:none;stroke-opacity:1" />
    <path
       inkscape:original-d="m 90.174232,140.6579 c -0.546933,-0.17392 -1.094131,-0.3481 -1.641594,-0.52254 -0.432752,0.0546 -0.865751,0.10885 -1.299025,0.16287 -0.503787,0.23396 -1.007824,0.46764 -1.512133,0.70106 -0.254611,0.26928 -0.509479,0.53828 -0.764614,0.80703 -0.187447,0.3943 -0.37515,0.78833 -0.563121,1.18209 0.03785,0.37773 0.07544,0.75518 0.112755,1.13237 0.140166,0.3318 0.280062,0.66331 0.419695,0.99457 0.155525,0.2447 0.310775,0.48912 0.465765,0.73329 0.275892,0.18041 0.551508,0.36054 0.826865,0.54041 0.264147,0.11207 0.528019,0.22386 0.791631,0.33539 0.231955,0.0337 0.479904,0.0671 0.71946,0.10023 0.469128,-0.0219 0.937969,-0.044 1.40656,-0.0664 0.295206,-0.17079 0.590134,-0.34183 0.884806,-0.51314 0.267541,-0.15969 0.534805,-0.31964 0.801809,-0.47986 0.224647,-0.37724 0.449019,-0.75474 0.673134,-1.1325 0.08827,-0.40117 0.176269,-0.80259 0.264007,-1.20428 -0.108926,-0.45833 -0.218112,-0.91691 -0.327562,-1.37576 -0.187881,-0.28798 -0.376018,-0.57621 -0.564425,-0.86471 -0.231077,-0.17644 -0.46241,-0.35314 -0.694013,-0.5301 z"
       inkscape:path-effect="#path-effect911"
       inkscape:connector-curvature="0"
       id="path909"
       d="m 89.900791,140.57086 c -0.273441,-0.087 -0.820639,-0.26122 -1.310793,-0.32123 -0.490154,-0.06 -0.923148,-0.006 -1.391735,0.13826 -0.468587,0.14398 -0.972623,0.37766 -1.352144,0.62904 -0.379522,0.25138 -0.634387,0.52039 -0.855702,0.85196 -0.221315,0.33158 -0.409021,0.72561 -0.484039,1.11144 -0.07502,0.38583 -0.03743,0.76328 0.05136,1.11779 0.0888,0.35451 0.22869,0.68603 0.376299,0.974 0.14761,0.28797 0.302859,0.5324 0.518358,0.74463 0.215498,0.21223 0.491113,0.39236 0.760872,0.5383 0.269759,0.14594 0.533629,0.25773 0.78148,0.32973 0.24785,0.072 0.495643,0.10652 0.849963,0.11213 0.354319,0.006 0.823159,-0.0165 1.204974,-0.11313 0.381815,-0.0966 0.676742,-0.26765 0.957845,-0.43315 0.281103,-0.1655 0.548367,-0.32545 0.79413,-0.59412 0.245763,-0.26867 0.470139,-0.64616 0.626332,-1.03557 0.156192,-0.38941 0.244193,-0.79083 0.233658,-1.22078 -0.01054,-0.42995 -0.119721,-0.88853 -0.268325,-1.26195 -0.148603,-0.37342 -0.336741,-0.66165 -0.546435,-0.89416 -0.209695,-0.23251 -0.441029,-0.40921 -0.556845,-0.49767 -0.115815,-0.0885 -0.115815,-0.0885 -0.389256,-0.17552 z"
       style="fill:none;stroke:#000000;stroke-width:0.5;stroke-linecap:butt;stroke-linejoin:miter;stroke-miterlimit:4;stroke-dasharray:none;stroke-opacity:1" />
    <path
       inkscape:original-d="m 95.420962,142.22589 c -0.203144,0.0623 -0.406556,0.12433 -0.61023,0.18609 -0.17757,0.17441 -0.355399,0.34854 -0.533495,0.5224 -0.0053,0.0566 -0.01095,0.11302 -0.01683,0.16914 0.01222,0.20498 0.02418,0.40969 0.03589,0.61414 0.136469,0.16322 0.272669,0.32617 0.408604,0.48886 0.121287,0.0674 0.229949,0.14695 0.344527,0.22003 0.184322,0.004 0.384812,0.008 0.576823,0.0122 0.204679,-0.16061 0.409086,-0.32147 0.61323,-0.4826 0.05434,-0.16543 0.108408,-0.33113 0.162216,-0.49709 -0.0462,-0.16856 -0.09265,-0.33739 -0.139377,-0.50648 -0.130937,-0.16282 -0.262133,-0.3259 -0.393597,-0.48925 -0.148989,-0.0789 -0.298238,-0.15799 -0.447754,-0.23739 z"
       inkscape:path-effect="#path-effect915"
       inkscape:connector-curvature="0"
       id="path913"
       d="m 95.319341,142.25688 c -0.101621,0.031 -0.305033,0.093 -0.495739,0.21113 -0.190706,0.11811 -0.368535,0.29224 -0.460264,0.40759 -0.09173,0.11535 -0.09734,0.17177 -0.09415,0.30234 0.0032,0.13057 0.01516,0.33528 0.08936,0.51912 0.07419,0.18384 0.210394,0.34679 0.336737,0.4654 0.126343,0.1186 0.239611,0.19094 0.389041,0.22947 0.149429,0.0385 0.349914,0.0428 0.548147,-0.0357 0.198232,-0.0784 0.402637,-0.23928 0.531834,-0.40247 0.129196,-0.16318 0.183269,-0.32888 0.187145,-0.49607 0.0039,-0.16718 -0.04258,-0.33601 -0.13134,-0.50198 -0.08876,-0.16597 -0.219953,-0.32905 -0.360145,-0.45022 -0.140192,-0.12117 -0.289425,-0.20029 -0.36421,-0.23994 -0.07479,-0.0396 -0.07479,-0.0397 -0.176413,-0.009 z"
       style="fill:none;stroke:#000000;stroke-width:0.5;stroke-linecap:butt;stroke-linejoin:miter;stroke-miterlimit:4;stroke-dasharray:none;stroke-opacity:1" />
    <path
       inkscape:original-d="m 95.804216,143.32354 c -0.06674,0.0207 -0.133739,0.0412 -0.201006,0.0613 -0.05228,0.0602 -0.104834,0.12015 -0.157647,0.17983 -0.0048,0.0341 -0.0098,0.0678 -0.01508,0.10134 0.03587,0.0767 0.07147,0.15304 0.106815,0.22916 0.04466,0.009 0.09588,0.0185 0.143422,0.0274 0.06502,0.003 0.129768,0.005 0.194255,0.007 0.04869,-0.0398 0.09712,-0.0799 0.145282,-0.12029 2.65e-4,-0.0593 2.65e-4,-0.11891 0,-0.17876 -0.03929,-0.0715 -0.07884,-0.14318 -0.11866,-0.21516 -0.0322,-0.0305 -0.06466,-0.0613 -0.09739,-0.0923 z"
       inkscape:path-effect="#path-effect919"
       inkscape:connector-curvature="0"
       id="path917"
       d="m 95.770798,143.33373 c -0.03342,0.0102 -0.100437,0.0306 -0.160292,0.0709 -0.05985,0.0402 -0.11241,0.10016 -0.141211,0.14716 -0.0288,0.047 -0.03382,0.0807 -0.01843,0.13585 0.01539,0.0552 0.05097,0.13151 0.09108,0.17382 0.0401,0.0423 0.09127,0.0521 0.147545,0.0578 0.05628,0.006 0.121012,0.008 0.177468,-0.0108 0.05646,-0.0189 0.104887,-0.059 0.129094,-0.10869 0.02421,-0.0497 0.02421,-0.1093 0.0045,-0.17494 -0.0197,-0.0657 -0.05924,-0.13734 -0.09519,-0.18861 -0.03596,-0.0513 -0.06844,-0.082 -0.0848,-0.0975 -0.01636,-0.0155 -0.01635,-0.015 -0.04977,-0.005 z"
       style="fill:none;stroke:#000000;stroke-width:0.2;stroke-linecap:butt;stroke-linejoin:miter;stroke-miterlimit:4;stroke-dasharray:none;stroke-opacity:1" />
    <path
       inkscape:original-d="m 101.07829,140.26684 c 0.13366,-0.12927 0.26705,-0.2588 0.40018,-0.3886 0.25279,-0.11405 0.50529,-0.22835 0.75754,-0.34293 0.20021,-0.0434 0.40014,-0.087 0.59982,-0.13083 0.19187,0.022 0.38347,0.0438 0.5748,0.0652 0.20744,0.0641 0.41461,0.12792 0.62152,0.19148 0.15446,0.0819 0.30864,0.16353 0.46257,0.24489 0.13922,0.13921 0.27817,0.27815 0.41686,0.41683 0.10013,0.12475 0.2,0.24924 0.2996,0.37347 0.0778,0.14546 0.15532,0.29065 0.23258,0.43558 0.0586,0.19663 0.117,0.39299 0.17511,0.58909 -0.007,0.32902 -0.015,0.65776 -0.0229,0.98624 -0.0792,0.19917 -0.15873,0.39806 -0.2385,0.59669 -0.15513,0.18711 -0.31052,0.37394 -0.46618,0.56051 -0.2042,0.12242 -0.40865,0.24457 -0.61337,0.36645 -0.21134,0.0934 -0.42615,0.18663 -0.63962,0.27954"
       inkscape:path-effect="#path-effect923"
       inkscape:connector-curvature="0"
       id="path921"
       d="m 101.07829,140.26684 c 0.1334,-0.12954 0.26679,-0.25907 0.45981,-0.38102 0.19302,-0.12195 0.44551,-0.23625 0.67179,-0.31521 0.22627,-0.079 0.4262,-0.12256 0.62202,-0.13346 0.19582,-0.0109 0.38742,0.0108 0.58682,0.0536 0.19939,0.0428 0.40656,0.10664 0.58725,0.17941 0.18068,0.0728 0.33486,0.15439 0.48141,0.26472 0.14655,0.11034 0.2855,0.24928 0.40489,0.38101 0.1194,0.13173 0.21926,0.25622 0.30793,0.39108 0.0887,0.13485 0.16619,0.28004 0.2341,0.45082 0.0679,0.17077 0.12628,0.36714 0.1516,0.62967 0.0253,0.26253 0.0177,0.59127 -0.0259,0.85503 -0.0436,0.26376 -0.12309,0.46266 -0.24053,0.65547 -0.11743,0.19282 -0.27282,0.37965 -0.4527,0.53411 -0.17988,0.15446 -0.38433,0.27661 -0.59245,0.38397 -0.20813,0.10736 -0.4227,0.20114 -0.63603,0.29437"
       style="fill:none;stroke:#000000;stroke-width:0.5;stroke-linecap:butt;stroke-linejoin:miter;stroke-miterlimit:4;stroke-dasharray:none;stroke-opacity:1" />
    <path
       inkscape:original-d="m 102.01879,141.28623 c 0.15692,-0.0858 0.31358,-0.17182 0.46997,-0.25813 0.13855,-0.011 0.27682,-0.0223 0.41484,-0.0338 0.12949,0.0475 0.25872,0.0947 0.38769,0.14166 0.0664,0.0684 0.13255,0.13648 0.19843,0.20433 0.0357,0.12333 0.0712,0.24639 0.10636,0.36919 0.009,0.10939 0.017,0.21851 0.0252,0.32737 -0.0681,0.12495 -0.13653,0.24963 -0.20518,0.37405 -0.17637,0.125 -0.35299,0.24972 -0.52988,0.37419"
       inkscape:path-effect="#path-effect927"
       inkscape:connector-curvature="0"
       id="path925"
       d="m 102.01879,141.28623 c 0.15676,-0.0861 0.31341,-0.17214 0.46095,-0.22078 0.14755,-0.0486 0.28582,-0.0599 0.41961,-0.0419 0.1338,0.018 0.26302,0.0653 0.36069,0.12301 0.0977,0.0577 0.16379,0.12585 0.21451,0.22146 0.0507,0.0956 0.0862,0.21868 0.10806,0.33477 0.0219,0.11608 0.0303,0.22517 2.6e-4,0.34198 -0.03,0.1168 -0.0984,0.2415 -0.22089,0.36614 -0.12246,0.12465 -0.29908,0.24937 -0.47576,0.37414"
       style="fill:none;stroke:#000000;stroke-width:0.5;stroke-linecap:butt;stroke-linejoin:miter;stroke-miterlimit:4;stroke-dasharray:none;stroke-opacity:1" />
    <path
       inkscape:original-d="m 84.158253,140.30684 c -0.313333,-0.11803 -0.62693,-0.23633 -0.940792,-0.3549 -0.174723,-0.0219 -0.349703,-0.044 -0.52495,-0.0664 -0.12715,0.004 -0.254563,0.007 -0.38224,0.0104 -0.297964,0.12009 -0.596178,0.23991 -0.894662,0.35947 -0.197951,0.15402 -0.396158,0.30777 -0.594636,0.46126 -0.160779,0.23702 -0.321815,0.47377 -0.483121,0.71026 -0.09252,0.35306 -0.185309,0.70585 -0.278363,1.05838 0.0275,0.32165 0.05473,0.64303 0.0817,0.96415 0.07609,0.16198 0.151908,0.32369 0.227465,0.48514 0.185713,0.12882 0.371154,0.25736 0.556334,0.38564 0.161721,0.11889 0.323172,0.23752 0.484362,0.35588 0.18806,0.0571 0.375851,0.11393 0.56338,0.1705"
       inkscape:path-effect="#path-effect931"
       inkscape:connector-curvature="0"
       id="path929"
       d="m 84.158253,140.30684 c -0.313277,-0.11818 -0.626874,-0.23648 -0.871182,-0.30674 -0.244308,-0.0703 -0.419284,-0.0924 -0.570504,-0.10174 -0.151221,-0.009 -0.278621,-0.006 -0.491504,0.0557 -0.212884,0.0616 -0.511098,0.18144 -0.759365,0.31824 -0.248267,0.13681 -0.446474,0.29056 -0.626141,0.48586 -0.179666,0.19529 -0.340703,0.43204 -0.467622,0.72688 -0.126919,0.29484 -0.219706,0.64763 -0.252447,0.98477 -0.03274,0.33714 -0.0055,0.65852 0.04608,0.90009 0.05159,0.24157 0.12741,0.40327 0.258124,0.54835 0.130713,0.14508 0.316152,0.27362 0.489599,0.39722 0.173447,0.12359 0.334901,0.24221 0.509534,0.32988 0.174634,0.0877 0.362424,0.1445 0.549902,0.20124"
       style="fill:none;stroke:#000000;stroke-width:0.5;stroke-linecap:butt;stroke-linejoin:miter;stroke-miterlimit:4;stroke-dasharray:none;stroke-opacity:1" />
    <path
       inkscape:original-d="m 83.156514,141.91124 c -0.218522,-0.10746 -0.437311,-0.21519 -0.656363,-0.32319 -0.175027,0.0164 -0.350308,0.0324 -0.525862,0.0482 -0.150706,0.12088 -0.301672,0.24148 -0.452908,0.36182 -0.02582,0.18315 -0.05189,0.36602 -0.07824,0.54864 0.09286,0.15713 0.185449,0.31399 0.277775,0.47059 0.183322,0.13244 0.366369,0.26462 0.549156,0.39653 0.06382,0.0271 0.127373,0.054 0.190664,0.0806"
       inkscape:path-effect="#path-effect935"
       inkscape:connector-curvature="0"
       id="path933"
       d="m 83.156514,141.91124 c -0.218467,-0.10757 -0.437256,-0.2153 -0.634339,-0.26122 -0.197083,-0.0459 -0.372358,-0.0299 -0.535593,0.0385 -0.163235,0.0683 -0.314199,0.18894 -0.402756,0.34081 -0.08856,0.15187 -0.114636,0.33474 -0.08127,0.50466 0.03337,0.16992 0.125954,0.32678 0.263835,0.47125 0.137881,0.14448 0.320932,0.27665 0.444239,0.35613 0.123307,0.0795 0.186873,0.10635 0.250108,0.13308"
       style="fill:none;stroke:#000000;stroke-width:0.5;stroke-linecap:butt;stroke-linejoin:miter;stroke-miterlimit:4;stroke-dasharray:none;stroke-opacity:1" />
    <path
       inkscape:original-d="m 86.466129,142.53635 c -0.189945,0.0413 -0.380151,0.0824 -0.570625,0.1232 -0.09403,0.0759 -0.188312,0.15143 -0.282863,0.22674 -0.05707,0.0953 -0.114403,0.19032 -0.172003,0.28509 -0.02551,0.17729 -0.05128,0.35432 -0.07732,0.53108 0.06425,0.21244 0.128244,0.42462 0.191969,0.63653 0.133924,0.11956 0.267578,0.23886 0.40097,0.3579 0.191215,0.0406 0.382159,0.081 0.572842,0.1211 0.134445,-0.0555 0.268621,-0.11131 0.402534,-0.16737 0.169095,-0.22503 0.337918,-0.45031 0.506481,-0.67587 -0.009,-0.17559 -0.01823,-0.35144 -0.02773,-0.52756 -0.09594,-0.20502 -0.192141,-0.41029 -0.288608,-0.61584 -0.218289,-0.0981 -0.436832,-0.1964 -0.655645,-0.295 z"
       inkscape:path-effect="#path-effect939"
       inkscape:connector-curvature="0"
       id="path937"
       d="m 86.371127,142.55686 c -0.095,0.0205 -0.285216,0.0616 -0.427563,0.11992 -0.142347,0.0583 -0.236607,0.13391 -0.312456,0.21926 -0.07585,0.0854 -0.13318,0.18038 -0.174728,0.31649 -0.04155,0.1361 -0.06732,0.31313 -0.04815,0.50777 0.01917,0.19465 0.08316,0.40683 0.182076,0.57253 0.09892,0.16571 0.23257,0.28501 0.394885,0.36475 0.162316,0.0797 0.353267,0.12011 0.515738,0.11234 0.162472,-0.008 0.296655,-0.0636 0.448078,-0.20406 0.151424,-0.14049 0.320244,-0.36577 0.400061,-0.56623 0.07982,-0.20046 0.07057,-0.37631 0.01792,-0.56686 -0.05266,-0.19055 -0.148855,-0.39582 -0.306155,-0.54772 -0.157299,-0.1519 -0.375831,-0.25022 -0.485265,-0.29946 -0.109434,-0.0492 -0.109436,-0.0492 -0.204438,-0.0287 z"
       style="fill:none;stroke:#000000;stroke-width:0.5;stroke-linecap:butt;stroke-linejoin:miter;stroke-miterlimit:4;stroke-dasharray:none;stroke-opacity:1" />
    <path
       inkscape:original-d="m 87.129555,143.90306 c -0.03257,-0.0724 -0.06541,-0.14498 -0.09851,-0.21786 -0.05322,-0.0261 -0.106693,-0.0524 -0.160438,-0.079 -0.04785,0.01 -0.09597,0.0193 -0.144351,0.0286 -0.04002,0.0533 -0.08031,0.10625 -0.120862,0.15898 -0.0026,0.0538 -0.0053,0.10743 -0.0084,0.16075 0.01683,0.0641 0.03341,0.12792 0.04972,0.19148 0.04352,0.0361 0.08677,0.072 0.129754,0.1076 0.03821,0.004 0.07616,0.008 0.113845,0.0114 0.05092,-0.0177 0.101568,-0.0357 0.151955,-0.0539 0.02268,-0.0491 0.04509,-0.0984 0.06724,-0.14806 0.0069,-0.053 0.0136,-0.1063 0.02,-0.15984 z"
       inkscape:path-effect="#path-effect943"
       inkscape:connector-curvature="0"
       id="path941"
       d="m 87.113201,143.86689 c -0.01636,-0.0362 -0.04918,-0.10876 -0.09226,-0.15832 -0.04308,-0.0496 -0.09654,-0.0759 -0.147413,-0.0844 -0.05087,-0.008 -0.09895,0.001 -0.143281,0.0323 -0.04433,0.0313 -0.0846,0.0843 -0.106134,0.13766 -0.02153,0.0534 -0.02434,0.10699 -0.0174,0.16573 0.0069,0.0587 0.02351,0.12257 0.05351,0.17237 0.03001,0.0498 0.07328,0.0857 0.11387,0.10541 0.04059,0.0197 0.07856,0.0235 0.122791,0.0164 0.04423,-0.007 0.09489,-0.0251 0.131313,-0.0587 0.03643,-0.0336 0.05882,-0.0829 0.07338,-0.13415 0.01456,-0.0513 0.02123,-0.10458 0.02458,-0.13133 0.0033,-0.0267 0.0034,-0.0269 -0.01296,-0.0631 z"
       style="fill:none;stroke:#000000;stroke-width:0.2;stroke-linecap:butt;stroke-linejoin:miter;stroke-miterlimit:4;stroke-dasharray:none;stroke-opacity:1" />
    <path
       inkscape:original-d="m 81.781604,158.48482 c 7.648244,2.6e-4 15.296224,2.6e-4 22.943936,0"
       inkscape:path-effect="#path-effect947"
       inkscape:connector-curvature="0"
       id="path945"
       d="m 81.781604,158.48482 c 7.648244,0 15.296224,0 22.943936,0"
       style="fill:none;stroke:#000000;stroke-width:0.5;stroke-linecap:butt;stroke-linejoin:miter;stroke-miterlimit:4;stroke-dasharray:none;stroke-opacity:1" />
    <path
       transform="scale(0.26458333)"
       inkscape:connector-curvature="0"
       id="path949"
       d="m 310.29982,594.51554 c 0.0419,-1.93445 -0.16247,-6.9633 -0.4542,-11.17522 -0.98869,-14.27411 -0.94421,-25.18649 0.12752,-31.28216 1.07472,-6.11272 3.66714,-12.54232 7.36192,-18.25871 2.37721,-3.67791 5.12818,-5.42924 12.13962,-7.72836 7.80315,-2.55874 15.81347,-3.80493 24.40164,-3.79625 14.69659,0.0148 23.29715,3.30784 29.83974,11.42503 4.51467,5.60122 7.06948,11.77625 8.43614,20.3904 1.36192,8.58419 2.5427,26.54307 2.54459,38.70147 l 8.2e-4,5.24016 -42.23701,5.1e-4 -42.237,5e-4 0.0762,-3.51718 z m 39.63795,-22.59664 0.95103,-0.8592 0.67755,0.5828 c 1.62083,1.39418 5.19581,1.20686 5.90666,-0.30949 0.11575,-0.24692 0.27118,-1.75305 0.34538,-3.34694 l 0.13492,-2.89799 1.09767,-0.1866 c 2.93819,-0.49948 4.89413,-3.23343 4.22386,-5.90398 -0.21103,-0.84082 -2.63687,-3.41751 -4.07254,-4.32578 -0.65286,-0.41303 -1.26305,-1.07745 -1.57029,-1.70984 -1.30369,-2.68337 -3.085,-3.76218 -6.23564,-3.77644 -3.73347,-0.0169 -5.48693,0.89932 -6.34507,3.31547 -0.34867,0.98169 -0.65198,1.3843 -1.26207,1.67523 -2.31347,1.10322 -3.73689,3.33011 -3.73094,5.83692 0.005,2.2021 0.83074,3.5362 2.80586,4.53449 0.75411,0.38115 0.82075,0.51311 0.82075,1.6252 0,3.32749 2.31558,6.55332 4.73437,6.59546 0.31211,0.005 0.99544,-0.37676 1.5185,-0.84931 z m -12.20575,-16.79476 c 2.0627,-0.73371 4.8833,-2.542 6.25881,-4.01254 1.30397,-1.39405 2.79438,-4.33038 3.20512,-6.31454 0.92233,-4.45559 -0.61672,-9.30946 -3.94838,-12.45238 -1.57778,-1.48839 -1.92466,-1.68875 -3.99144,-2.3054 -4.60151,-1.37291 -6.87423,-1.43492 -10.41731,-0.28421 -5.59422,1.81685 -8.87746,4.94728 -10.29193,9.81291 -0.92466,3.18068 0.23878,7.78948 2.88089,11.41229 1.29087,1.77002 4.63643,3.79922 7.48364,4.53908 1.9283,0.50109 6.93099,0.27694 8.8206,-0.39521 z m 34.01758,-1.69705 c 3.50022,-1.09425 6.62151,-3.56274 8.02312,-6.34512 1.8252,-3.62325 1.6149,-8.73748 -0.54044,-13.14315 -1.34777,-2.75496 -4.76868,-5.29085 -8.24326,-6.11068 -5.6738,-1.33874 -14.9241,2.72218 -17.29059,7.59064 -1.77334,3.6482 -1.77286,7.73568 0.001,11.34788 1.69733,3.45574 4.46152,5.65556 8.42045,6.70122 3.73467,0.98643 6.37946,0.97523 9.62941,-0.0408 z"
       style="fill:#008080;fill-opacity:0.6;stroke-width:0.477237;stroke-miterlimit:4;stroke-dasharray:none" />
    <path
       transform="scale(0.26458333)"
       inkscape:connector-curvature="0"
       id="path957"
       d="m 306.77236,544.76779 c -2.19075,-1.46824 -2.70261,-2.23892 -2.90148,-4.36855 -0.2695,-2.88593 1.02255,-6.38805 3.02378,-8.19604 1.26341,-1.14142 3.46539,-2.15491 5.0029,-2.30264 1.48097,-0.14231 4.8858,0.80686 4.59808,1.2818 -0.10187,0.16816 -0.71148,1.11456 -1.35469,2.10312 -1.1218,1.72411 -1.19439,1.7845 -1.78072,1.48145 -1.22059,-0.63086 -2.65079,-0.69815 -3.82247,-0.17986 -3.3042,1.4616 -3.43037,5.24621 -0.25108,7.53152 l 0.98479,0.70788 -0.51737,1.59129 c -0.28455,0.87521 -0.65514,1.59129 -0.82352,1.59129 -0.16839,0 -1.13959,-0.55857 -2.15822,-1.24126 z"
       style="fill:#008080;fill-opacity:0.6;stroke-width:0.477237;stroke-miterlimit:4;stroke-dasharray:none" />
    <path
       transform="scale(0.26458333)"
       inkscape:connector-curvature="0"
       id="path959"
       d="m 391.30003,542.35992 -0.96445,-2.38643 0.76425,-0.64309 c 2.27894,-1.91759 1.85574,-5.77845 -0.76372,-6.96755 -1.30527,-0.59252 -2.06243,-0.61433 -3.49857,-0.10079 l -1.10504,0.39514 -1.06519,-1.19977 c -1.24904,-1.40687 -1.2116,-1.50086 1.00572,-2.525 1.31082,-0.60544 1.89209,-0.72445 3.46874,-0.71018 2.54624,0.0231 4.34506,0.7407 6.041,2.4101 1.87247,1.84316 2.60615,3.42344 2.74224,5.90652 0.19561,3.5688 -0.7782,5.45973 -3.7081,7.20036 -0.93239,0.55392 -1.75312,1.00713 -1.82384,1.00713 -0.0707,0 -0.56259,-1.0739 -1.09304,-2.38644 z"
       style="fill:#008080;fill-opacity:0.6;stroke-width:0.477237;stroke-miterlimit:4;stroke-dasharray:none" />
    <path
       inkscape:connector-curvature="0"
       id="path961"
       d="m 91.994291,147.13968 c -0.421403,-0.14301 -0.506445,-0.23591 -0.44287,-0.48382 0.192799,-0.75182 0.436998,-0.92311 1.317263,-0.92398 0.607887,-6.5e-4 0.918471,0.15342 1.171482,0.581 l 0.20516,0.34671 -0.200387,0.19277 c -0.110214,0.10604 -0.324951,0.23146 -0.477194,0.27873 -0.317123,0.0985 -1.292823,0.10382 -1.573454,0.009 z"
       style="fill:#000000;fill-opacity:1;stroke-width:0.147582;stroke-miterlimit:4;stroke-dasharray:none" />
    <path
       transform="scale(0.26458333)"
       inkscape:connector-curvature="0"
       id="path965"
       d=""
       style="fill:#000000;fill-opacity:0.6;stroke-width:0.477237;stroke-miterlimit:4;stroke-dasharray:none" />
    <path
       transform="scale(0.26458333)"
       inkscape:connector-curvature="0"
       id="path969"
       d="m 326.00488,546.08205 c -0.47914,-0.12884 -0.9375,-0.38909 -1.26961,-0.72084 -0.95,-0.94897 -1.26377,-2.9635 -0.6518,-4.18481 0.33143,-0.66144 0.84724,-0.99909 1.95588,-1.28032 l 0.61901,-0.15702 0.31708,0.13477 c 0.43938,0.18674 1.02546,0.54748 1.32127,0.81326 0.49941,0.44871 0.9424,1.35025 1.06836,2.17425 l 0.0377,0.24649 -0.20279,-0.2211 c -0.60037,-0.65453 -1.52409,-0.59496 -2.00377,0.12921 -0.102,0.15399 -0.20381,0.37787 -0.22626,0.4975 -0.0684,0.36442 0.009,1.03825 0.15158,1.31711 0.14482,0.28361 0.50603,0.63141 0.75344,0.72547 l 0.15803,0.0601 -0.24396,0.1963 c -0.13417,0.10797 -0.33538,0.23528 -0.44711,0.28293 -0.25979,0.11078 -0.89934,0.10443 -1.33703,-0.0133 z"
       style="fill:#000000;fill-opacity:1;stroke:#000000;stroke-width:0.0477237;stroke-miterlimit:4;stroke-dasharray:none;stroke-opacity:0.6" />
    <path
       transform="scale(0.26458333)"
       inkscape:connector-curvature="0"
       id="path971"
       d="m 359.54317,544.76936 c -0.41831,-0.13731 -0.67068,-0.32292 -1.20145,-0.88364 -0.74263,-0.78454 -0.96889,-1.31735 -1.06249,-2.50198 l -0.0424,-0.53664 0.22713,-0.29563 c 0.26457,-0.34437 0.93094,-0.92435 1.42712,-1.2421 0.33416,-0.21399 1.18878,-0.5917 1.51551,-0.6698 0.24812,-0.0593 0.90242,0.36328 1.51523,0.97862 0.83463,0.83808 1.26438,1.71824 1.26155,2.58378 l -0.001,0.34976 -0.17438,-0.31567 c -0.37022,-0.6702 -0.63533,-0.91546 -0.98957,-0.91546 -0.30553,0 -0.93452,0.34374 -1.24956,0.68288 -0.34585,0.37231 -0.42525,0.54428 -0.42525,0.92108 0,0.34471 0.31871,0.99631 0.57743,1.18053 0.1045,0.0744 0.32274,0.16934 0.48498,0.21096 l 0.29498,0.0757 -0.43523,0.20819 c -0.35566,0.17014 -0.52878,0.21257 -0.94701,0.2321 -0.32555,0.0152 -0.60774,-0.008 -0.77544,-0.0626 z"
       style="fill:#000000;fill-opacity:1;stroke:#000000;stroke-width:0.0477237;stroke-miterlimit:4;stroke-dasharray:none;stroke-opacity:0.6" />
    <path
       inkscape:original-d="m 95.700055,144.03698 c -0.116575,0.0474 -0.380328,0.0669 -0.570886,0.0999 -0.08881,-0.0567 -0.177885,-0.11364 -0.267221,-0.17086 -0.09913,-0.13376 -0.198517,-0.26779 -0.298173,-0.40208 -0.01468,-0.15469 -0.02965,-0.30963 -0.04487,-0.46485 0.143267,-0.14364 0.286263,-0.28755 0.428998,-0.43172 0.102979,-0.0307 0.205685,-0.0618 0.308131,-0.093 0.124688,0.0345 0.249108,0.0687 0.373264,0.10264 0.127002,0.12085 0.253735,0.24143 0.380206,0.36175 0.02776,0.17074 0.05526,0.3412 0.08249,0.5114 -0.02923,-0.0516 -0.05873,-0.10345 -0.08849,-0.15557 -0.03161,-0.0436 -0.06348,-0.0875 -0.09561,-0.13164 -0.03308,-0.0151 -0.06643,-0.0304 -0.100041,-0.046 -0.04156,0.004 -0.08338,0.008 -0.125461,0.0118 -0.08168,0.0599 -0.16362,0.11944 -0.245828,0.17876 -0.02714,0.069 -0.05454,0.13779 -0.08221,0.2063 0.01509,0.0755 0.02991,0.15074 0.04447,0.22571 0.033,0.0416 0.06573,0.083 0.0982,0.12412"
       inkscape:path-effect="#path-effect993"
       inkscape:connector-curvature="0"
       id="path991"
       d="m 95.700055,144.03698 c -0.121159,0.0212 -0.380387,0.0666 -0.520022,0.0548 -0.139636,-0.0117 -0.228704,-0.0687 -0.32298,-0.1641 -0.09428,-0.0954 -0.193667,-0.22947 -0.250937,-0.37396 -0.05727,-0.1445 -0.07223,-0.29944 -0.0082,-0.44901 0.06401,-0.14958 0.207006,-0.29348 0.329943,-0.38096 0.122937,-0.0875 0.225671,-0.11849 0.339304,-0.11681 0.113633,0.002 0.238049,0.0359 0.363606,0.11338 0.125556,0.0775 0.252289,0.19806 0.329295,0.34361 0.077,0.14555 0.104501,0.31602 0.103564,0.37532 -9.36e-4,0.0593 -0.03043,0.007 -0.06109,-0.0404 -0.03066,-0.0479 -0.06254,-0.0918 -0.0951,-0.12145 -0.03256,-0.0297 -0.0659,-0.045 -0.103515,-0.0508 -0.03762,-0.006 -0.07944,-0.002 -0.141437,0.0299 -0.06199,0.0318 -0.143912,0.0913 -0.19863,0.15558 -0.05472,0.0643 -0.08213,0.13303 -0.08836,0.20512 -0.0062,0.0721 0.0086,0.14733 0.03244,0.20562 0.02385,0.0583 0.0566,0.0997 0.08911,0.14076"
       style="fill:none;stroke:#000000;stroke-width:0.264583px;stroke-linecap:butt;stroke-linejoin:miter;stroke-opacity:1" />
    <path
       inkscape:original-d="m 87.154482,143.69728 c -0.05622,-0.15109 -0.112713,-0.30244 -0.169466,-0.45405 -0.09385,-0.10546 -0.187949,-0.21118 -0.282323,-0.31717 -0.09118,-0.0398 -0.182626,-0.0798 -0.274336,-0.1201 -0.149553,0.0316 -0.299366,0.063 -0.449445,0.0941 -0.08346,0.0937 -0.167183,0.18712 -0.251172,0.28029 -0.0072,0.27415 -0.01471,0.54803 -0.02246,0.82164 0.05934,0.0867 0.118412,0.17309 0.17722,0.25923 0.124593,0.0746 0.248912,0.14892 0.372973,0.22297 0.154765,0.0131 0.309258,0.0259 0.463492,0.0384 0.02463,-0.0536 0.049,-0.10752 0.07311,-0.16168"
       inkscape:path-effect="#path-effect997"
       inkscape:connector-curvature="0"
       id="path995"
       d="m 87.154482,143.69728 c -0.05637,-0.15103 -0.11286,-0.30239 -0.188094,-0.43094 -0.07523,-0.12856 -0.169337,-0.23428 -0.262085,-0.30723 -0.09275,-0.073 -0.184181,-0.11298 -0.304869,-0.1174 -0.120688,-0.004 -0.270508,0.0269 -0.387385,0.0894 -0.116878,0.0624 -0.200596,0.15585 -0.2462,0.33963 -0.0456,0.18378 -0.05309,0.45766 -0.02718,0.63784 0.02591,0.18017 0.08497,0.26657 0.176725,0.34688 0.09175,0.0803 0.216072,0.15462 0.355471,0.1981 0.139399,0.0435 0.293892,0.0563 0.383149,0.0358 0.08926,-0.0205 0.113638,-0.0744 0.138064,-0.12842"
       style="fill:none;stroke:#000000;stroke-width:0.264583px;stroke-linecap:butt;stroke-linejoin:miter;stroke-opacity:1" />
    <path
       inkscape:original-d="m 87.183276,143.76268 c -0.003,-0.007 -0.0062,-0.0152 -0.0097,-0.0231 -0.04223,-0.0369 -0.08472,-0.0741 -0.127487,-0.11149 -0.05494,-0.0384 -0.110146,-0.0772 -0.165613,-0.11613 -0.06535,0.01 -0.130963,0.0196 -0.196839,0.029 -0.03805,0.0461 -0.07637,0.092 -0.114957,0.13762 -0.01283,0.0395 -0.0259,0.0787 -0.03925,0.11769 -0.0044,0.0841 -0.0091,0.16792 -0.0141,0.25148 0.02754,0.0615 0.05481,0.12271 0.08181,0.18368 0.04397,0.0334 0.08767,0.0665 0.131099,0.0993 0.04116,0.0139 0.08206,0.0275 0.122698,0.0408"
       inkscape:path-effect="#path-effect1001"
       inkscape:connector-curvature="0"
       id="path999"
       d="m 87.183276,143.76268 c -0.0029,-0.007 -0.0064,-0.0151 -0.02914,-0.0376 -0.02278,-0.0224 -0.06529,-0.0596 -0.109267,-0.10214 -0.04398,-0.0425 -0.08949,-0.0905 -0.159647,-0.0959 -0.07015,-0.005 -0.135758,0.004 -0.187834,0.032 -0.05208,0.0278 -0.09041,0.0737 -0.11613,0.1163 -0.02572,0.0426 -0.0388,0.0818 -0.04767,0.14341 -0.0089,0.0616 -0.01358,0.14541 -0.0022,0.21798 0.01136,0.0726 0.03863,0.13378 0.0742,0.1809 0.03557,0.0471 0.07927,0.0802 0.121576,0.10351 0.0423,0.0233 0.0832,0.0369 0.123778,0.0504"
       style="fill:none;stroke:#000000;stroke-width:0.264583px;stroke-linecap:butt;stroke-linejoin:miter;stroke-opacity:1" />
  </g>
</svg>
