<?xml version="1.0" encoding="UTF-8" standalone="no"?>
<!-- Created with Inkscape (http://www.inkscape.org/) -->

<svg
   xmlns:dc="http://purl.org/dc/elements/1.1/"
   xmlns:cc="http://creativecommons.org/ns#"
   xmlns:rdf="http://www.w3.org/1999/02/22-rdf-syntax-ns#"
   xmlns:svg="http://www.w3.org/2000/svg"
   xmlns="http://www.w3.org/2000/svg"
   xmlns:sodipodi="http://sodipodi.sourceforge.net/DTD/sodipodi-0.dtd"
   xmlns:inkscape="http://www.inkscape.org/namespaces/inkscape"
   width="34.344131mm"
   height="34.344131mm"
   viewBox="0 0 34.344132 34.344131"
   version="1.1"
   id="svg8"
   inkscape:version="0.92.4 (unknown)"
   sodipodi:docname="logoNoText.svg">
  <defs
     id="defs2">
    <inkscape:path-effect
       effect="bspline"
       id="path-effect896"
       is_visible="true"
       weight="33.333333"
       steps="2"
       helper_size="0"
       apply_no_weight="true"
       apply_with_weight="true"
       only_selected="false" />
    <inkscape:path-effect
       effect="bspline"
       id="path-effect892"
       is_visible="true"
       weight="33.333333"
       steps="2"
       helper_size="0"
       apply_no_weight="true"
       apply_with_weight="true"
       only_selected="false" />
    <inkscape:path-effect
       effect="bspline"
       id="path-effect823"
       is_visible="true"
       weight="33.333333"
       steps="2"
       helper_size="0"
       apply_no_weight="true"
       apply_with_weight="true"
       only_selected="false" />
    <inkscape:path-effect
       effect="bspline"
       id="path-effect819"
       is_visible="true"
       weight="33.333333"
       steps="2"
       helper_size="0"
       apply_no_weight="true"
       apply_with_weight="true"
       only_selected="false" />
  </defs>
  <sodipodi:namedview
     id="base"
     pagecolor="#ffffff"
     bordercolor="#666666"
     borderopacity="1.0"
     inkscape:pageopacity="0.0"
     inkscape:pageshadow="2"
     inkscape:zoom="0.35"
     inkscape:cx="758.18197"
     inkscape:cy="-43.846621"
     inkscape:document-units="mm"
     inkscape:current-layer="layer1"
     showgrid="false"
     inkscape:window-width="1920"
     inkscape:window-height="1148"
     inkscape:window-x="0"
     inkscape:window-y="0"
     inkscape:window-maximized="1" />
  <metadata
     id="metadata5">
    <rdf:RDF>
      <cc:Work
         rdf:about="">
        <dc:format>image/svg+xml</dc:format>
        <dc:type
           rdf:resource="http://purl.org/dc/dcmitype/StillImage" />
        <dc:title></dc:title>
      </cc:Work>
    </rdf:RDF>
  </metadata>
  <g
     inkscape:label="Layer 1"
     inkscape:groupmode="layer"
     id="layer1"
     transform="translate(-34.422417,-50.186089)">
    <circle
       style="opacity:0.98999999;fill:#37302d;fill-opacity:1;fill-rule:nonzero;stroke:none;stroke-width:5.17102623;stroke-miterlimit:4;stroke-dasharray:none;stroke-dashoffset:0;stroke-opacity:1"
       id="path917"
       cx="51.594482"
       cy="67.358154"
       r="17.172066" />
    <path
       style="fill:none;stroke:#000000;stroke-width:0.26458332px;stroke-linecap:butt;stroke-linejoin:miter;stroke-opacity:1"
       d="m 51.421594,63.022257 c -0.194833,-0.100199 -0.584602,-0.300651 -1.110856,-0.528976 -0.526254,-0.228325 -1.188686,-0.484392 -1.9432,-0.634756 -0.754515,-0.150365 -1.60069,-0.194901 -2.2713,-0.173214 -0.67061,0.02169 -1.177952,0.111882 -1.578944,0.253855 -0.400992,0.141973 -0.701491,0.33674 -0.888167,0.559534 -0.186677,0.222793 -0.258988,0.473103 -0.203263,0.77411 0.05573,0.301006 0.239243,0.651358 0.542794,1.027314 0.303552,0.375957 0.72661,0.776749 1.280645,1.24726 0.554035,0.470512 1.238924,1.010628 1.678789,1.36976 0.439866,0.359131 0.634758,0.537319 0.618193,0.732063 -0.01657,0.194745 -0.244872,0.406346 -0.64889,0.682208 -0.404018,0.275862 -0.982406,0.615108 -1.408448,0.885198 -0.426042,0.27009 -0.698731,0.470433 -0.849201,0.634719 -0.150471,0.164286 -0.17828,0.29221 -0.122415,0.392703 0.05586,0.100493 0.194733,0.172705 0.119764,0.322821 -0.07497,0.150116 -0.364719,0.378574 -0.807675,0.679458 -0.442957,0.300885 -1.038146,0.673572 -1.383471,0.957534 -0.345324,0.283961 -0.439933,0.478745 -0.414849,0.668353 0.02508,0.189607 0.169618,0.373056 0.345118,0.503958 0.1755,0.130902 0.381482,0.208841 0.396093,0.413404 0.01461,0.204563 -0.164925,0.541194 -0.479678,0.897771 -0.314754,0.356577 -0.765344,0.73485 -1.107869,1.043942 -0.342525,0.309092 -0.576238,0.548371 -0.712786,0.793492 -0.136548,0.245121 -0.175481,0.495405 -0.136485,0.751784 0.039,0.256378 0.155786,0.517767 0.303409,0.73781 0.147624,0.220043 0.325722,0.39814 0.63491,0.370216 0.309188,-0.02793 0.749069,-0.261786 1.194341,-0.570715 0.445271,-0.308929 0.896613,-0.693406 1.394776,-1.163749 0.498163,-0.470343 1.044181,-1.027504 1.53686,-1.511826 0.492678,-0.484321 0.932771,-0.896559 1.264023,-1.127527 0.331253,-0.230969 0.554113,-0.281112 0.765554,-0.386877 0.21144,-0.105764 0.41217,-0.267464 0.609665,-0.476114 0.197495,-0.208651 0.39266,-0.465153 0.551281,-0.673865 0.15862,-0.208711 0.281259,-0.370371 0.467462,-0.345351 0.186202,0.02502 0.437224,0.236994 0.629319,0.398465 0.192095,0.161472 0.325744,0.272846 0.520734,0.317368 0.194989,0.04452 0.451171,0.02224 0.688337,-0.0079 0.237166,-0.03016 0.455837,-0.06827 0.914989,-0.185619 0.459152,-0.117346 1.160948,-0.31448 1.745527,-0.521166 0.58458,-0.206687 1.053324,-0.423333 1.549226,-0.736246 0.495902,-0.312912 1.019914,-0.722666 1.446963,-1.193059 0.42705,-0.470394 0.757963,-1.002219 1.114154,-1.663452 0.356191,-0.661233 0.738327,-1.45308 1.137902,-2.151813 0.399575,-0.698733 0.817091,-1.305314 1.216595,-2.023662 0.399504,-0.718347 0.781609,-1.549526 1.124116,-2.203012 0.342508,-0.653487 0.645793,-1.130078 0.82489,-1.43321 0.179097,-0.303131 0.234253,-0.433143 0.426861,-0.596231 0.192607,-0.163088 0.524148,-0.360434 1.055334,-0.563056 0.531186,-0.202622 1.264206,-0.411494 1.537698,-0.594522 0.273492,-0.183029 0.08848,-0.340483 -0.173266,-0.387781 -0.261751,-0.0473 -0.600274,0.01568 -1.037542,0.131885 -0.437268,0.116203 -0.972255,0.285353 -1.356209,0.395627 -0.383955,0.110274 -0.616117,0.161429 -0.927483,0.131885 -0.311367,-0.02954 -0.700638,-0.13964 -1.18105,-0.15148 -0.480413,-0.01184 -1.051057,0.07474 -1.661491,0.281474 -0.610435,0.206734 -1.259743,0.533356 -1.732315,0.854262 -0.472573,0.320907 -0.767723,0.635733 -1.008029,0.992204 -0.240307,0.356471 -0.425197,0.753788 -0.683135,1.037416 -0.257937,0.283629 -0.588401,0.452795 -0.927177,0.572965 -0.338775,0.12017 -0.684922,0.190972 -1.134188,0.231551 -0.449267,0.04058 -1.000309,0.05079 -1.27621,0.0559 -0.2759,0.0051 -0.275897,0.0051 -0.47073,-0.09507 z"
       id="path890"
       inkscape:connector-curvature="0"
       inkscape:path-effect="#path-effect892"
       inkscape:original-d="m 51.616427,63.122457 c -0.389504,-0.200715 -0.779272,-0.401169 -1.169305,-0.601355 -0.662514,-0.256466 -1.324946,-0.512533 -1.987817,-0.768401 -0.846267,-0.04482 -1.692442,-0.08936 -2.539061,-0.133635 -0.495443,0.08328 -1.001996,0.177916 -1.503389,0.267271 -0.300596,0.194736 -0.601094,0.389504 -0.902036,0.58465 -0.07219,0.250558 -0.144505,0.500867 -0.217157,0.751697 0.184243,0.350967 0.367761,0.701318 0.551244,1.052372 0.423561,0.400754 0.846619,0.801545 1.269531,1.202714 0.685131,0.539835 1.370021,1.07995 2.054633,1.620322 0.195141,0.177906 0.390033,0.356094 0.584652,0.53454 -0.228012,0.21131 -0.456319,0.42291 -0.684876,0.634765 -0.579517,0.339799 -1.157904,0.679045 -1.737252,1.018963 -0.272722,0.200297 -0.545412,0.40064 -0.818515,0.601358 -0.02761,0.127942 -0.05541,0.255868 -0.08352,0.384199 0.139803,0.07229 0.27867,0.144507 0.417608,0.217157 -0.289068,0.227864 -0.578818,0.456321 -0.868624,0.684879 -0.596125,0.373174 -1.191313,0.745863 -1.787367,1.11919 -0.09444,0.19472 -0.18905,0.389504 -0.283972,0.584652 0.145272,0.183783 0.289806,0.367232 0.434311,0.551244 0.206325,0.0777 0.412306,0.155641 0.618062,0.23386 -0.172226,0.333589 -0.356095,0.667909 -0.534538,1.00226 -0.451181,0.378727 -0.901772,0.756999 -1.353053,1.135896 -0.233743,0.239316 -0.467458,0.478594 -0.701582,0.718288 -0.03876,0.250579 -0.07769,0.500864 -0.11693,0.751695 0.117335,0.261749 0.234124,0.523139 0.35079,0.785106 0.178527,0.177995 0.356624,0.356094 0.53454,0.534537 0.440145,-0.234124 0.880025,-0.467987 1.319644,-0.701582 0.450956,-0.384188 0.902298,-0.768665 1.35305,-1.152599 0.545597,-0.556726 1.091615,-1.113888 1.637027,-1.670436 0.439933,-0.412107 0.880026,-0.824344 1.319644,-1.23612 0.222851,-0.05035 0.445712,-0.100492 0.668173,-0.150339 0.200438,-0.161518 0.40117,-0.323215 0.601356,-0.484426 0.194868,-0.256029 0.390033,-0.512532 0.584652,-0.7684 0.122622,-0.161555 0.245261,-0.323215 0.367496,-0.484426 0.25037,0.210937 0.501393,0.42291 0.751695,0.634765 0.133887,0.111085 0.267536,0.222459 0.400904,0.334086 0.25635,-0.02254 0.512532,-0.04481 0.7684,-0.06682 0.218448,-0.03829 0.437119,-0.0764 0.655281,-0.1142 0.70013,-0.196855 1.401926,-0.393988 2.102493,-0.590587 0.468587,-0.216715 0.937331,-0.433361 1.405599,-0.649647 0.523562,-0.409459 1.047575,-0.819211 1.570963,-1.228421 0.330811,-0.531498 0.661723,-1.063323 0.992188,-1.594588 0.381957,-0.791192 0.764092,-1.583039 1.145741,-2.374162 0.417446,-0.606359 0.834961,-1.21294 1.252045,-1.81901 0.381987,-0.830609 0.764093,-1.661787 1.145741,-2.492283 0.303316,-0.476488 0.606602,-0.953079 0.909505,-1.429221 0.05535,-0.130111 0.110509,-0.260122 0.165365,-0.389789 0.330181,-0.196644 0.661723,-0.393988 0.992187,-0.590587 0.731904,-0.208743 1.464924,-0.417613 2.196987,-0.626023 -0.184787,-0.157757 -0.369795,-0.315211 -0.555156,-0.472477 -0.33842,0.06275 -0.676944,0.125727 -1.015812,0.188987 -0.535681,0.169188 -1.070668,0.338338 -1.606399,0.507904 -0.232169,0.05095 -0.464331,0.102106 -0.696891,0.153554 -0.390041,-0.110654 -0.779312,-0.22075 -1.169366,-0.330729 -0.570894,0.08639 -1.141537,0.172974 -1.712704,0.259858 -0.649721,0.326699 -1.29903,0.653319 -1.948939,0.980376 -0.295174,0.31487 -0.590325,0.629695 -0.885883,0.944941 -0.184947,0.397743 -0.369837,0.79506 -0.555152,1.192988 -0.330729,0.169172 -0.661193,0.338338 -0.992187,0.507905 -0.346546,0.07067 -0.692692,0.141478 -1.039434,0.212611 -0.551754,0.01 -1.102797,0.02019 -1.654593,0.03066 z"
       sodipodi:nodetypes="ccccccccccccccccccccccccccccccccccccccccccccccccccccccccccccccc" />
    <path
       style="fill:none;stroke:#000000;stroke-width:0.26458332px;stroke-linecap:butt;stroke-linejoin:miter;stroke-opacity:1"
       d="m 51.421594,63.022257 c -0.308128,-0.331321 -0.616247,-0.662632 -1.086253,-0.977211 -0.470005,-0.31458 -1.101952,-0.612458 -1.706707,-0.90574 -0.604754,-0.293283 -1.182067,-0.58185 -1.805467,-0.820672 -0.6234,-0.238822 -1.292611,-0.427775 -1.9603,-0.589734 -0.667689,-0.161959 -1.333415,-0.29681 -2.064575,-0.367056 -0.731161,-0.07024 -1.52716,-0.07581 -2.086806,-0.07581 -0.559647,-2e-6 -0.882491,0.0056 -1.236202,0.06959 -0.353711,0.06403 -0.737592,0.18643 -0.991027,0.317249 -0.253434,0.130819 -0.375831,0.269907 -0.409329,0.459508 -0.0335,0.189601 0.02207,0.428546 0.186453,0.70995 0.164381,0.281404 0.436999,0.604095 0.846318,0.943797 0.409319,0.339701 0.954954,0.696034 1.542384,1.010623 0.58743,0.314589 1.216702,0.587459 1.765984,0.824847 0.549282,0.237387 1.037631,0.44749 1.51636,0.653454"
       id="path894"
       inkscape:connector-curvature="0"
       inkscape:path-effect="#path-effect896"
       inkscape:original-d="M 51.421594,63.022257 C 51.11374,62.690682 50.805621,62.35937 50.497237,62.028323 49.865486,61.730148 49.233539,61.43227 48.601293,61.13464 c -0.577254,-0.288935 -1.154567,-0.577501 -1.732245,-0.865854 -0.669192,-0.189288 -1.338403,-0.378241 -2.008,-0.566965 -0.665808,-0.135186 -1.331534,-0.270037 -1.997699,-0.404659 -0.796216,-0.0058 -1.592215,-0.0114 -2.388719,-0.01669 -0.322795,0.0053 -0.645639,0.01087 -0.968854,0.01669 -0.384255,0.122338 -0.768136,0.244734 -1.152599,0.367495 -0.122336,0.139055 -0.244732,0.278144 -0.367496,0.417611 0.05606,0.239646 0.111628,0.478591 0.167045,0.718285 0.27332,0.322946 0.545938,0.645637 0.818512,0.968852 0.545981,0.356121 1.091615,0.712454 1.637025,1.069078 0.629388,0.272542 1.25866,0.545412 1.887593,0.818515 0.467892,0.205713 0.957979,0.411776 1.436571,0.618058"
       sodipodi:nodetypes="ccccccccccccccc" />
    <path
       style="opacity:0.98999999;fill:#ffffff;fill-opacity:1;fill-rule:nonzero;stroke:none;stroke-width:4.77237415;stroke-miterlimit:4;stroke-dasharray:none;stroke-dashoffset:0;stroke-opacity:1"
       d="m 154.53982,295.10607 c -0.72283,-0.79467 -1.27506,-1.92767 -1.485,-3.04672 -0.33643,-1.79332 0.17205,-2.57484 4.31814,-6.63686 3.99124,-3.91031 5.12619,-5.51559 4.80483,-6.79598 -0.0778,-0.31014 -0.71266,-1.04548 -1.41071,-1.63408 -2.24342,-1.89169 -1.95883,-2.38171 3.5528,-6.11731 1.70144,-1.15318 3.52856,-2.51053 4.06027,-3.01634 0.93176,-0.88636 1.24051,-1.80899 0.71421,-2.13427 -0.45835,-0.28327 -0.26331,-1.03178 0.44194,-1.69601 0.38197,-0.35974 2.51276,-1.80563 4.73509,-3.21308 4.45039,-2.81851 5.93465,-4.13264 5.93465,-5.25441 0,-0.88691 -1.32402,-2.19938 -6.06092,-6.00807 -8.33744,-6.7037 -10.96089,-10.63533 -8.69152,-13.02551 1.78026,-1.87503 5.01731,-2.7499 10.16583,-2.7475 5.9228,0.003 10.41663,1.07558 16.38112,3.91071 2.9251,1.3904 2.92778,1.3911 5.35188,1.3833 4.77612,-0.0153 8.29506,-0.80457 10.56635,-2.3698 0.8561,-0.58997 1.7179,-1.62256 3.08914,-3.70133 2.18013,-3.30503 3.66271,-4.64683 7.06829,-6.39711 3.43474,-1.76527 5.99143,-2.4822 8.97565,-2.5169 1.38896,-0.0161 3.55172,0.0703 4.80613,0.19208 2.25962,0.21939 2.31926,0.21039 6.43972,-0.97167 4.40938,-1.26495 6.6278,-1.64765 6.90944,-1.19196 0.21585,0.34926 -0.17017,0.54188 -3.38181,1.68745 -3.23402,1.15356 -5.44498,2.23079 -6.40117,3.11878 -0.94361,0.8763 -3.50811,5.2666 -6.73322,11.52692 -1.43109,2.77792 -3.50971,6.52811 -4.61916,8.33375 -1.10944,1.80565 -3.30555,5.70383 -4.88024,8.66262 -1.57468,2.95879 -3.28646,6.02713 -3.80395,6.81853 -2.33132,3.56534 -7.23484,7.45504 -11.60127,9.20267 -4.16905,1.66863 -10.11826,3.22183 -12.62808,3.29689 -1.49184,0.0446 -1.60394,0.003 -3.06768,-1.14729 -2.77767,-2.18226 -3.25782,-2.09368 -5.8112,1.07205 -1.52055,1.88521 -1.99333,2.28494 -3.88296,3.28299 -2.94356,1.55472 -3.44601,1.96731 -8.92324,7.32732 -5.71599,5.59366 -7.70416,7.31798 -10.31157,8.94311 -2.40784,1.50073 -3.80449,1.76153 -4.62178,0.86303 z"
       id="path919"
       inkscape:connector-curvature="0"
       transform="scale(0.26458333)" />
    <path
       style="opacity:0.98999999;fill:#ffffff;fill-opacity:1;fill-rule:nonzero;stroke:none;stroke-width:4.77237415;stroke-miterlimit:4;stroke-dasharray:none;stroke-dashoffset:0;stroke-opacity:1"
       d="m 160.37129,239.87133 c -7.46433,-3.34097 -11.40146,-5.71477 -13.76181,-8.29738 -1.52697,-1.67074 -2.05518,-2.62992 -2.08811,-3.79181 -0.0316,-1.11536 0.6281,-1.64687 2.98098,-2.40169 1.63806,-0.5255 2.22173,-0.56648 7.95495,-0.55842 6.8691,0.01 9.09667,0.27023 14.9827,1.75268 4.46722,1.12511 7.37118,2.24246 13.14679,5.05845 4.6818,2.28267 7.40293,3.82015 7.17125,4.05183 -0.0621,0.0621 -0.84231,-0.18451 -1.73379,-0.54804 -4.62146,-1.88453 -7.9113,-2.488 -13.49017,-2.47456 -4.80415,0.0116 -6.48258,0.32497 -9.0518,1.69013 -2.69297,1.43092 -3.57837,3.60054 -2.48139,6.08046 0.28566,0.64578 0.44054,1.16614 0.34418,1.15635 -0.0964,-0.01 -1.88456,-0.78289 -3.97378,-1.718 z"
       id="path921"
       inkscape:connector-curvature="0"
       transform="scale(0.26458333)" />
  </g>
</svg>
